<?xml version="1.0" standalone="no"?>
 <!DOCTYPE svg PUBLIC "-//W3C//DTD SVG 1.1//EN" 
 "http://www.w3.org/Graphics/SVG/1.1/DTD/svg11.dtd"> 
<svg xmlns="http://www.w3.org/2000/svg" version="1.1" 
    width="6.72338cm" height="3.81254cm" viewBox="0 0 26470 15010 ">
<title>SVG Picture created as neopixel-esp32-wroom-brd.svg date 2018/08/24 17:12:48 </title>
  <desc>Picture generated by PCBNEW </desc>
<g style="fill:#000000; fill-opacity:1;stroke:#000000; stroke-opacity:1;
stroke-linecap:round; stroke-linejoin:round; "
 transform="translate(0 0) scale(1 1)">
</g>
<g style="fill:#000000; fill-opacity:0.0; 
stroke:#000000; stroke-width:-0.000393701; stroke-opacity:1; 
stroke-linecap:round; stroke-linejoin:round;">
</g>
<g style="fill:#848400; fill-opacity:0.0; 
stroke:#848400; stroke-width:-0.000393701; stroke-opacity:1; 
stroke-linecap:round; stroke-linejoin:round;">
</g>
<g style="fill:#848400; fill-opacity:1.0; 
stroke:#848400; stroke-width:0; stroke-opacity:1; 
stroke-linecap:round; stroke-linejoin:round;">
<circle cx="7267.01" cy="13021.7" r="1122.05" /> 
</g>
<g style="fill:#848400; fill-opacity:1.0; 
stroke:#848400; stroke-width:39.3701; stroke-opacity:1; 
stroke-linecap:round; stroke-linejoin:round;">
</g>
<g style="fill:#848400; fill-opacity:1.0; 
stroke:#848400; stroke-width:0; stroke-opacity:1; 
stroke-linecap:round; stroke-linejoin:round;">
<polyline style="fill-rule:evenodd;"
points="7625,1537
8137,1537
8137,2049
7625,2049
7625,1537
" /> 
<circle cx="7881.65" cy="3761.97" r="255.906" /> 
</g>
<g style="fill:#848400; fill-opacity:1.0; 
stroke:#848400; stroke-width:39.3701; stroke-opacity:1; 
stroke-linecap:round; stroke-linejoin:round;">
</g>
<g style="fill:#848400; fill-opacity:1.0; 
stroke:#848400; stroke-width:0; stroke-opacity:1; 
stroke-linecap:round; stroke-linejoin:round;">
<polyline style="fill-rule:evenodd;"
points="4832,8190
4832,6812
6210,6812
6210,8190
4832,8190
" /> 
<polyline style="fill-rule:evenodd;"
points="2470,8190
2470,6812
3848,6812
3848,8190
2470,8190
" /> 
<polyline style="fill-rule:evenodd;"
points="3651,10041
3651,8663
5029,8663
5029,10041
3651,10041
" /> 
<circle cx="25163" cy="7903.54" r="314.961" /> 
</g>
<g style="fill:#848400; fill-opacity:1.0; 
stroke:#848400; stroke-width:39.3701; stroke-opacity:1; 
stroke-linecap:round; stroke-linejoin:round;">
</g>
<g style="fill:#848400; fill-opacity:1.0; 
stroke:#848400; stroke-width:0; stroke-opacity:1; 
stroke-linecap:round; stroke-linejoin:round;">
<circle cx="25163" cy="8690.95" r="314.961" /> 
</g>
<g style="fill:#848400; fill-opacity:1.0; 
stroke:#848400; stroke-width:39.3701; stroke-opacity:1; 
stroke-linecap:round; stroke-linejoin:round;">
</g>
<g style="fill:#848400; fill-opacity:1.0; 
stroke:#848400; stroke-width:0; stroke-opacity:1; 
stroke-linecap:round; stroke-linejoin:round;">
<circle cx="25163" cy="9478.35" r="314.961" /> 
</g>
<g style="fill:#848400; fill-opacity:1.0; 
stroke:#848400; stroke-width:39.3701; stroke-opacity:1; 
stroke-linecap:round; stroke-linejoin:round;">
</g>
<g style="fill:#848400; fill-opacity:1.0; 
stroke:#848400; stroke-width:0; stroke-opacity:1; 
stroke-linecap:round; stroke-linejoin:round;">
<circle cx="25163" cy="10265.7" r="314.961" /> 
</g>
<g style="fill:#848400; fill-opacity:1.0; 
stroke:#848400; stroke-width:39.3701; stroke-opacity:1; 
stroke-linecap:round; stroke-linejoin:round;">
</g>
<g style="fill:#848400; fill-opacity:1.0; 
stroke:#848400; stroke-width:0; stroke-opacity:1; 
stroke-linecap:round; stroke-linejoin:round;">
<circle cx="25163" cy="4753.94" r="314.961" /> 
</g>
<g style="fill:#848400; fill-opacity:1.0; 
stroke:#848400; stroke-width:39.3701; stroke-opacity:1; 
stroke-linecap:round; stroke-linejoin:round;">
</g>
<g style="fill:#848400; fill-opacity:1.0; 
stroke:#848400; stroke-width:0; stroke-opacity:1; 
stroke-linecap:round; stroke-linejoin:round;">
<circle cx="25163" cy="5541.34" r="314.961" /> 
</g>
<g style="fill:#848400; fill-opacity:1.0; 
stroke:#848400; stroke-width:39.3701; stroke-opacity:1; 
stroke-linecap:round; stroke-linejoin:round;">
</g>
<g style="fill:#848400; fill-opacity:1.0; 
stroke:#848400; stroke-width:0; stroke-opacity:1; 
stroke-linecap:round; stroke-linejoin:round;">
<circle cx="25163" cy="6328.74" r="314.961" /> 
</g>
<g style="fill:#848400; fill-opacity:1.0; 
stroke:#848400; stroke-width:39.3701; stroke-opacity:1; 
stroke-linecap:round; stroke-linejoin:round;">
</g>
<g style="fill:#848400; fill-opacity:1.0; 
stroke:#848400; stroke-width:0; stroke-opacity:1; 
stroke-linecap:round; stroke-linejoin:round;">
<circle cx="25163" cy="7116.14" r="314.961" /> 
</g>
<g style="fill:#848400; fill-opacity:1.0; 
stroke:#848400; stroke-width:39.3701; stroke-opacity:1; 
stroke-linecap:round; stroke-linejoin:round;">
</g>
<g style="fill:#848400; fill-opacity:1.0; 
stroke:#848400; stroke-width:0; stroke-opacity:1; 
stroke-linecap:round; stroke-linejoin:round;">
<polyline style="fill-rule:evenodd;"
points="20196,12962
19527,12962
19527,12293
20196,12293
20196,12962
" /> 
</g>
<g style="fill:#848400; fill-opacity:1.0; 
stroke:#848400; stroke-width:669.291; stroke-opacity:1; 
stroke-linecap:round; stroke-linejoin:round;">
</g>
<g style="fill:#848400; fill-opacity:0.0; 
stroke:#848400; stroke-width:669.291; stroke-opacity:1; 
stroke-linecap:round; stroke-linejoin:round;">
<path d="M20861 12627
L20861 12627
" />
<path d="M21861 12627
L21861 12627
" />
</g>
<g style="fill:#848400; fill-opacity:0.0; 
stroke:#848400; stroke-width:0; stroke-opacity:1; 
stroke-linecap:round; stroke-linejoin:round;">
</g>
<g style="fill:#848400; fill-opacity:1.0; 
stroke:#848400; stroke-width:0; stroke-opacity:1; 
stroke-linecap:round; stroke-linejoin:round;">
<polyline style="fill-rule:evenodd;"
points="21287,4997
21956,4997
21956,5666
21287,5666
21287,4997
" /> 
</g>
<g style="fill:#848400; fill-opacity:1.0; 
stroke:#848400; stroke-width:669.291; stroke-opacity:1; 
stroke-linecap:round; stroke-linejoin:round;">
</g>
<g style="fill:#848400; fill-opacity:0.0; 
stroke:#848400; stroke-width:669.291; stroke-opacity:1; 
stroke-linecap:round; stroke-linejoin:round;">
<path d="M20621 5331
L20621 5331
" />
<path d="M19621 5331
L19621 5331
" />
</g>
<g style="fill:#848400; fill-opacity:1.0; 
stroke:#848400; stroke-width:0; stroke-opacity:1; 
stroke-linecap:round; stroke-linejoin:round;">
<circle cx="20635.4" cy="1899.61" r="1122.05" /> 
</g>
<g style="fill:#848400; fill-opacity:1.0; 
stroke:#848400; stroke-width:39.3701; stroke-opacity:1; 
stroke-linecap:round; stroke-linejoin:round;">
</g>
<g style="fill:#008400; fill-opacity:1.0; 
stroke:#008400; stroke-width:39.3701; stroke-opacity:1; 
stroke-linecap:round; stroke-linejoin:round;">
</g>
<g style="fill:#008400; fill-opacity:1.0; 
stroke:#008400; stroke-width:100; stroke-opacity:1; 
stroke-linecap:round; stroke-linejoin:round;">
<polyline style="fill-rule:evenodd;"
points="19746,566
19303,1007
19063,1585
19063,2210
19301,2788
19743,3231
20321,3471
20946,3471
21524,3233
21967,2791
22207,2213
22207,1588
21968,1010
21527,567
21385,509
22321,509
22321,3375
22357,3559
22461,3715
22617,3819
22800,3855
25864,3855
25864,4448
25811,4321
25596,4105
25315,3989
25011,3988
24730,4105
24514,4320
24398,4601
24397,4905
24498,5147
24398,5388
24397,5692
24498,5935
24398,6175
24397,6480
24498,6722
24398,6963
24397,7267
24498,7510
24398,7750
24397,8055
24498,8297
24398,8538
24397,8842
24498,9084
24398,9325
24397,9629
24514,9911
24560,9957
24487,10206
24516,10469
24561,10578
24680,10606
25021,10265
25016,10260
25032,10243
25293,10243
25309,10260
25304,10265
25645,10606
25764,10578
25838,10325
25809,10062
25766,9957
25811,9912
25864,9783
25864,11164
22800,11164
22617,11200
22461,11304
22357,11460
22321,11643
22321,12135
22178,12021
22066,11974
21961,12039
21961,12527
21969,12527
21969,12727
21961,12727
21961,13216
22066,13281
22178,13234
22321,13119
22321,14510
7780,14510
8156,14355
8598,13913
8838,13335
8839,12710
8667,12293
19068,12293
19068,12962
19103,13138
19202,13287
19351,13386
19527,13421
20196,13421
20371,13386
20480,13314
20561,13368
20861,13427
21161,13368
21416,13198
21445,13154
21544,13234
21656,13281
21761,13216
21761,12727
21753,12727
21753,12527
21761,12527
21761,12039
21656,11974
21544,12021
21445,12101
21416,12057
21161,11887
20861,11827
20561,11887
20480,11941
20371,11869
20196,11834
19527,11834
19351,11869
19202,11968
19103,12117
19068,12293
8667,12293
8600,12132
8158,11689
7581,11449
6955,11449
6377,11688
5935,12129
5695,12707
5694,13332
5933,13910
6375,14353
6753,14510
5563,14510
5563,11643
5527,11460
5423,11304
5267,11200
5084,11164
2020,11164
2020,10747
24822,10747
24849,10867
25103,10941
25366,10912
25476,10867
25503,10747
25162,10407
24822,10747
2020,10747
2020,9539
3301,9539
3301,10110
3354,10239
3453,10338
3581,10391
4153,10391
4240,10303
4240,9452
4440,9452
4440,10303
4528,10391
5099,10391
5227,10338
5326,10239
5379,10110
5379,9539
5292,9452
4440,9452
4240,9452
3389,9452
3301,9539
2020,9539
2020,7689
2120,7689
2120,8260
2173,8389
2272,8487
2400,8540
2971,8540
3059,8453
3059,7601
3259,7601
3259,8453
3330,8524
3301,8593
3301,9164
3389,9252
4240,9252
4240,8400
4169,8329
4198,8260
4198,7689
4110,7601
3259,7601
3059,7601
2207,7601
2120,7689
2020,7689
2020,6743
2120,6743
2120,7314
2207,7401
3059,7401
3059,6550
3259,6550
3259,7401
4110,7401
4198,7314
4198,6812
4373,6812
4373,8190
4408,8366
4440,8414
4440,9252
5292,9252
5379,9164
5379,8649
6210,8649
6386,8614
6535,8515
6634,8366
6669,8190
6669,6812
6634,6637
6535,6488
6386,6389
6210,6354
4832,6354
4657,6389
4508,6488
4408,6637
4373,6812
4198,6812
4198,6743
4145,6614
4046,6516
3918,6462
3346,6462
3259,6550
3059,6550
2971,6462
2400,6462
2272,6516
2173,6614
2120,6743
2020,6743
2020,5316
18837,5316
18837,5347
18896,5647
19066,5902
19321,6072
19621,6131
19921,6072
20121,5938
20321,6072
20621,6131
20921,6072
21087,5961
21088,5963
21217,6016
21434,6016
21521,5929
21521,5431
21721,5431
21721,5929
21809,6016
22025,6016
22154,5963
22253,5864
22306,5736
22306,5519
22218,5431
21721,5431
21521,5431
21513,5431
21513,5231
21521,5231
21521,4734
21721,4734
21721,5231
22218,5231
22306,5144
22306,4927
22253,4799
22154,4700
22025,4647
21809,4647
21721,4734
21521,4734
21434,4647
21217,4647
21088,4700
21087,4702
20921,4591
20621,4531
20321,4591
20121,4725
19921,4591
19621,4531
19321,4591
19066,4761
18896,5016
18837,5316
2020,5316
2020,4200
7584,4200
7604,4313
7836,4378
8075,4348
8159,4313
8179,4200
7881,3903
7584,4200
2020,4200
2020,3855
5084,3855
5267,3819
5420,3716
7265,3716
7295,3956
7329,4039
7442,4059
7740,3761
8023,3761
8320,4059
8433,4039
8497,3807
8468,3567
8433,3484
8320,3464
8023,3761
7740,3761
7442,3464
7329,3484
7265,3716
5420,3716
5423,3715
5527,3559
5563,3375
5563,3323
7584,3323
7881,3620
8179,3323
8159,3209
7926,3145
7687,3175
7604,3209
7584,3323
5563,3323
5563,1537
7166,1537
7166,2049
7201,2224
7301,2373
7450,2473
7625,2508
8137,2508
8313,2473
8461,2373
8561,2224
8596,2049
8596,1537
8561,1361
8461,1213
8313,1113
8137,1078
7625,1078
7450,1113
7301,1213
7201,1361
7166,1537
5563,1537
5563,509
19884,509
19746,566
" /> 
</g>
<g style="fill:#FFFFFF; fill-opacity:1.0; 
stroke:#FFFFFF; stroke-width:100; stroke-opacity:1; 
stroke-linecap:round; stroke-linejoin:round;">
</g>
<g style="fill:#FFFFFF; fill-opacity:1.0; 
stroke:#FFFFFF; stroke-width:0; stroke-opacity:1; 
stroke-linecap:round; stroke-linejoin:round;">
<circle cx="7267.01" cy="13021.7" r="629.921" /> 
</g>
<g style="fill:#FFFFFF; fill-opacity:1.0; 
stroke:#FFFFFF; stroke-width:39.3701; stroke-opacity:1; 
stroke-linecap:round; stroke-linejoin:round;">
</g>
<g style="fill:#FFFFFF; fill-opacity:1.0; 
stroke:#FFFFFF; stroke-width:0; stroke-opacity:1; 
stroke-linecap:round; stroke-linejoin:round;">
<circle cx="7881.65" cy="1793.46" r="157.48" /> 
</g>
<g style="fill:#FFFFFF; fill-opacity:1.0; 
stroke:#FFFFFF; stroke-width:39.3701; stroke-opacity:1; 
stroke-linecap:round; stroke-linejoin:round;">
</g>
<g style="fill:#FFFFFF; fill-opacity:1.0; 
stroke:#FFFFFF; stroke-width:0; stroke-opacity:1; 
stroke-linecap:round; stroke-linejoin:round;">
<circle cx="7881.65" cy="3761.97" r="157.48" /> 
</g>
<g style="fill:#FFFFFF; fill-opacity:1.0; 
stroke:#FFFFFF; stroke-width:39.3701; stroke-opacity:1; 
stroke-linecap:round; stroke-linejoin:round;">
</g>
<g style="fill:#FFFFFF; fill-opacity:1.0; 
stroke:#FFFFFF; stroke-width:393.701; stroke-opacity:1; 
stroke-linecap:round; stroke-linejoin:round;">
</g>
<g style="fill:#FFFFFF; fill-opacity:0.0; 
stroke:#FFFFFF; stroke-width:393.701; stroke-opacity:1; 
stroke-linecap:round; stroke-linejoin:round;">
<path d="M5521 7108
L5521 7895
" />
<path d="M3159 7108
L3159 7895
" />
<path d="M3946 9352
L4734 9352
" />
</g>
<g style="fill:#FFFFFF; fill-opacity:1.0; 
stroke:#FFFFFF; stroke-width:0; stroke-opacity:1; 
stroke-linecap:round; stroke-linejoin:round;">
<circle cx="25163" cy="7903.54" r="196.85" /> 
</g>
<g style="fill:#FFFFFF; fill-opacity:1.0; 
stroke:#FFFFFF; stroke-width:39.3701; stroke-opacity:1; 
stroke-linecap:round; stroke-linejoin:round;">
</g>
<g style="fill:#FFFFFF; fill-opacity:1.0; 
stroke:#FFFFFF; stroke-width:0; stroke-opacity:1; 
stroke-linecap:round; stroke-linejoin:round;">
<circle cx="25163" cy="8690.95" r="196.85" /> 
</g>
<g style="fill:#FFFFFF; fill-opacity:1.0; 
stroke:#FFFFFF; stroke-width:39.3701; stroke-opacity:1; 
stroke-linecap:round; stroke-linejoin:round;">
</g>
<g style="fill:#FFFFFF; fill-opacity:1.0; 
stroke:#FFFFFF; stroke-width:0; stroke-opacity:1; 
stroke-linecap:round; stroke-linejoin:round;">
<circle cx="25163" cy="9478.35" r="196.85" /> 
</g>
<g style="fill:#FFFFFF; fill-opacity:1.0; 
stroke:#FFFFFF; stroke-width:39.3701; stroke-opacity:1; 
stroke-linecap:round; stroke-linejoin:round;">
</g>
<g style="fill:#FFFFFF; fill-opacity:1.0; 
stroke:#FFFFFF; stroke-width:0; stroke-opacity:1; 
stroke-linecap:round; stroke-linejoin:round;">
<circle cx="25163" cy="10265.7" r="196.85" /> 
</g>
<g style="fill:#FFFFFF; fill-opacity:1.0; 
stroke:#FFFFFF; stroke-width:39.3701; stroke-opacity:1; 
stroke-linecap:round; stroke-linejoin:round;">
</g>
<g style="fill:#FFFFFF; fill-opacity:1.0; 
stroke:#FFFFFF; stroke-width:0; stroke-opacity:1; 
stroke-linecap:round; stroke-linejoin:round;">
<circle cx="25163" cy="4753.94" r="196.85" /> 
</g>
<g style="fill:#FFFFFF; fill-opacity:1.0; 
stroke:#FFFFFF; stroke-width:39.3701; stroke-opacity:1; 
stroke-linecap:round; stroke-linejoin:round;">
</g>
<g style="fill:#FFFFFF; fill-opacity:1.0; 
stroke:#FFFFFF; stroke-width:0; stroke-opacity:1; 
stroke-linecap:round; stroke-linejoin:round;">
<circle cx="25163" cy="5541.34" r="196.85" /> 
</g>
<g style="fill:#FFFFFF; fill-opacity:1.0; 
stroke:#FFFFFF; stroke-width:39.3701; stroke-opacity:1; 
stroke-linecap:round; stroke-linejoin:round;">
</g>
<g style="fill:#FFFFFF; fill-opacity:1.0; 
stroke:#FFFFFF; stroke-width:0; stroke-opacity:1; 
stroke-linecap:round; stroke-linejoin:round;">
<circle cx="25163" cy="6328.74" r="196.85" /> 
</g>
<g style="fill:#FFFFFF; fill-opacity:1.0; 
stroke:#FFFFFF; stroke-width:39.3701; stroke-opacity:1; 
stroke-linecap:round; stroke-linejoin:round;">
</g>
<g style="fill:#FFFFFF; fill-opacity:1.0; 
stroke:#FFFFFF; stroke-width:0; stroke-opacity:1; 
stroke-linecap:round; stroke-linejoin:round;">
<circle cx="25163" cy="7116.14" r="196.85" /> 
</g>
<g style="fill:#FFFFFF; fill-opacity:1.0; 
stroke:#FFFFFF; stroke-width:39.3701; stroke-opacity:1; 
stroke-linecap:round; stroke-linejoin:round;">
</g>
<g style="fill:#FFFFFF; fill-opacity:1.0; 
stroke:#FFFFFF; stroke-width:0; stroke-opacity:1; 
stroke-linecap:round; stroke-linejoin:round;">
<circle cx="19861.7" cy="12628" r="196.85" /> 
</g>
<g style="fill:#FFFFFF; fill-opacity:1.0; 
stroke:#FFFFFF; stroke-width:39.3701; stroke-opacity:1; 
stroke-linecap:round; stroke-linejoin:round;">
</g>
<g style="fill:#FFFFFF; fill-opacity:1.0; 
stroke:#FFFFFF; stroke-width:0; stroke-opacity:1; 
stroke-linecap:round; stroke-linejoin:round;">
<circle cx="20861.7" cy="12628" r="196.85" /> 
</g>
<g style="fill:#FFFFFF; fill-opacity:1.0; 
stroke:#FFFFFF; stroke-width:39.3701; stroke-opacity:1; 
stroke-linecap:round; stroke-linejoin:round;">
</g>
<g style="fill:#FFFFFF; fill-opacity:1.0; 
stroke:#FFFFFF; stroke-width:0; stroke-opacity:1; 
stroke-linecap:round; stroke-linejoin:round;">
<circle cx="21861.7" cy="12628" r="196.85" /> 
</g>
<g style="fill:#FFFFFF; fill-opacity:1.0; 
stroke:#FFFFFF; stroke-width:39.3701; stroke-opacity:1; 
stroke-linecap:round; stroke-linejoin:round;">
</g>
<g style="fill:#FFFFFF; fill-opacity:1.0; 
stroke:#FFFFFF; stroke-width:0; stroke-opacity:1; 
stroke-linecap:round; stroke-linejoin:round;">
<circle cx="21621.7" cy="5331.97" r="196.85" /> 
</g>
<g style="fill:#FFFFFF; fill-opacity:1.0; 
stroke:#FFFFFF; stroke-width:39.3701; stroke-opacity:1; 
stroke-linecap:round; stroke-linejoin:round;">
</g>
<g style="fill:#FFFFFF; fill-opacity:1.0; 
stroke:#FFFFFF; stroke-width:0; stroke-opacity:1; 
stroke-linecap:round; stroke-linejoin:round;">
<circle cx="20621.7" cy="5331.97" r="196.85" /> 
</g>
<g style="fill:#FFFFFF; fill-opacity:1.0; 
stroke:#FFFFFF; stroke-width:39.3701; stroke-opacity:1; 
stroke-linecap:round; stroke-linejoin:round;">
</g>
<g style="fill:#FFFFFF; fill-opacity:1.0; 
stroke:#FFFFFF; stroke-width:0; stroke-opacity:1; 
stroke-linecap:round; stroke-linejoin:round;">
<circle cx="19621.7" cy="5331.97" r="196.85" /> 
</g>
<g style="fill:#FFFFFF; fill-opacity:1.0; 
stroke:#FFFFFF; stroke-width:39.3701; stroke-opacity:1; 
stroke-linecap:round; stroke-linejoin:round;">
</g>
<g style="fill:#FFFFFF; fill-opacity:1.0; 
stroke:#FFFFFF; stroke-width:0; stroke-opacity:1; 
stroke-linecap:round; stroke-linejoin:round;">
<circle cx="20635.4" cy="1899.61" r="629.921" /> 
</g>
<g style="fill:#FFFFFF; fill-opacity:1.0; 
stroke:#FFFFFF; stroke-width:39.3701; stroke-opacity:1; 
stroke-linecap:round; stroke-linejoin:round;">
</g>
<g style="fill:#000000; fill-opacity:1.0; 
stroke:#000000; stroke-width:39.3701; stroke-opacity:1; 
stroke-linecap:round; stroke-linejoin:round;">
</g>
<g style="fill:#848400; fill-opacity:1.0; 
stroke:#848400; stroke-width:39.3701; stroke-opacity:1; 
stroke-linecap:round; stroke-linejoin:round;">
</g>
<g style="fill:#848400; fill-opacity:1.0; 
stroke:#848400; stroke-width:0; stroke-opacity:1; 
stroke-linecap:round; stroke-linejoin:round;">
<circle cx="7267.01" cy="13021.7" r="1122.05" /> 
</g>
<g style="fill:#848400; fill-opacity:1.0; 
stroke:#848400; stroke-width:39.3701; stroke-opacity:1; 
stroke-linecap:round; stroke-linejoin:round;">
</g>
<g style="fill:#848400; fill-opacity:1.0; 
stroke:#848400; stroke-width:0; stroke-opacity:1; 
stroke-linecap:round; stroke-linejoin:round;">
<polyline style="fill-rule:evenodd;"
points="7625,1537
8137,1537
8137,2049
7625,2049
7625,1537
" /> 
<circle cx="7881.65" cy="3761.97" r="255.906" /> 
</g>
<g style="fill:#848400; fill-opacity:1.0; 
stroke:#848400; stroke-width:39.3701; stroke-opacity:1; 
stroke-linecap:round; stroke-linejoin:round;">
</g>
<g style="fill:#840000; fill-opacity:1.0; 
stroke:#840000; stroke-width:39.3701; stroke-opacity:1; 
stroke-linecap:round; stroke-linejoin:round;">
</g>
<g style="fill:#840000; fill-opacity:1.0; 
stroke:#840000; stroke-width:0; stroke-opacity:1; 
stroke-linecap:round; stroke-linejoin:round;">
<polyline style="fill-rule:evenodd;"
points="8797,7259
8305,7259
8305,6668
8797,6668
8797,7259
" /> 
<polyline style="fill-rule:evenodd;"
points="8797,6275
8305,6275
8305,5684
8797,5684
8797,6275
" /> 
<polyline style="fill-rule:evenodd;"
points="9697,7269
9205,7269
9205,6678
9697,6678
9697,7269
" /> 
<polyline style="fill-rule:evenodd;"
points="9697,6285
9205,6285
9205,5694
9697,5694
9697,6285
" /> 
<polyline style="fill-rule:evenodd;"
points="23789,5085
23789,5578
23198,5578
23198,5085
23789,5085
" /> 
<polyline style="fill-rule:evenodd;"
points="22804,5085
22804,5578
22214,5578
22214,5085
22804,5085
" /> 
</g>
<g style="fill:#848400; fill-opacity:1.0; 
stroke:#848400; stroke-width:0; stroke-opacity:1; 
stroke-linecap:round; stroke-linejoin:round;">
<polyline style="fill-rule:evenodd;"
points="4832,8190
4832,6812
6210,6812
6210,8190
4832,8190
" /> 
<polyline style="fill-rule:evenodd;"
points="2470,8190
2470,6812
3848,6812
3848,8190
2470,8190
" /> 
<polyline style="fill-rule:evenodd;"
points="3651,10041
3651,8663
5029,8663
5029,10041
3651,10041
" /> 
<circle cx="25163" cy="7903.54" r="314.961" /> 
</g>
<g style="fill:#848400; fill-opacity:1.0; 
stroke:#848400; stroke-width:39.3701; stroke-opacity:1; 
stroke-linecap:round; stroke-linejoin:round;">
</g>
<g style="fill:#848400; fill-opacity:1.0; 
stroke:#848400; stroke-width:0; stroke-opacity:1; 
stroke-linecap:round; stroke-linejoin:round;">
<circle cx="25163" cy="8690.95" r="314.961" /> 
</g>
<g style="fill:#848400; fill-opacity:1.0; 
stroke:#848400; stroke-width:39.3701; stroke-opacity:1; 
stroke-linecap:round; stroke-linejoin:round;">
</g>
<g style="fill:#848400; fill-opacity:1.0; 
stroke:#848400; stroke-width:0; stroke-opacity:1; 
stroke-linecap:round; stroke-linejoin:round;">
<circle cx="25163" cy="9478.35" r="314.961" /> 
</g>
<g style="fill:#848400; fill-opacity:1.0; 
stroke:#848400; stroke-width:39.3701; stroke-opacity:1; 
stroke-linecap:round; stroke-linejoin:round;">
</g>
<g style="fill:#848400; fill-opacity:1.0; 
stroke:#848400; stroke-width:0; stroke-opacity:1; 
stroke-linecap:round; stroke-linejoin:round;">
<circle cx="25163" cy="10265.7" r="314.961" /> 
</g>
<g style="fill:#848400; fill-opacity:1.0; 
stroke:#848400; stroke-width:39.3701; stroke-opacity:1; 
stroke-linecap:round; stroke-linejoin:round;">
</g>
<g style="fill:#848400; fill-opacity:1.0; 
stroke:#848400; stroke-width:0; stroke-opacity:1; 
stroke-linecap:round; stroke-linejoin:round;">
<circle cx="25163" cy="4753.94" r="314.961" /> 
</g>
<g style="fill:#848400; fill-opacity:1.0; 
stroke:#848400; stroke-width:39.3701; stroke-opacity:1; 
stroke-linecap:round; stroke-linejoin:round;">
</g>
<g style="fill:#848400; fill-opacity:1.0; 
stroke:#848400; stroke-width:0; stroke-opacity:1; 
stroke-linecap:round; stroke-linejoin:round;">
<circle cx="25163" cy="5541.34" r="314.961" /> 
</g>
<g style="fill:#848400; fill-opacity:1.0; 
stroke:#848400; stroke-width:39.3701; stroke-opacity:1; 
stroke-linecap:round; stroke-linejoin:round;">
</g>
<g style="fill:#848400; fill-opacity:1.0; 
stroke:#848400; stroke-width:0; stroke-opacity:1; 
stroke-linecap:round; stroke-linejoin:round;">
<circle cx="25163" cy="6328.74" r="314.961" /> 
</g>
<g style="fill:#848400; fill-opacity:1.0; 
stroke:#848400; stroke-width:39.3701; stroke-opacity:1; 
stroke-linecap:round; stroke-linejoin:round;">
</g>
<g style="fill:#848400; fill-opacity:1.0; 
stroke:#848400; stroke-width:0; stroke-opacity:1; 
stroke-linecap:round; stroke-linejoin:round;">
<circle cx="25163" cy="7116.14" r="314.961" /> 
</g>
<g style="fill:#848400; fill-opacity:1.0; 
stroke:#848400; stroke-width:39.3701; stroke-opacity:1; 
stroke-linecap:round; stroke-linejoin:round;">
</g>
<g style="fill:#848400; fill-opacity:1.0; 
stroke:#848400; stroke-width:0; stroke-opacity:1; 
stroke-linecap:round; stroke-linejoin:round;">
<polyline style="fill-rule:evenodd;"
points="20196,12962
19527,12962
19527,12293
20196,12293
20196,12962
" /> 
</g>
<g style="fill:#848400; fill-opacity:1.0; 
stroke:#848400; stroke-width:669.291; stroke-opacity:1; 
stroke-linecap:round; stroke-linejoin:round;">
</g>
<g style="fill:#848400; fill-opacity:0.0; 
stroke:#848400; stroke-width:669.291; stroke-opacity:1; 
stroke-linecap:round; stroke-linejoin:round;">
<path d="M20861 12627
L20861 12627
" />
<path d="M21861 12627
L21861 12627
" />
</g>
<g style="fill:#848400; fill-opacity:0.0; 
stroke:#848400; stroke-width:0; stroke-opacity:1; 
stroke-linecap:round; stroke-linejoin:round;">
</g>
<g style="fill:#848400; fill-opacity:1.0; 
stroke:#848400; stroke-width:0; stroke-opacity:1; 
stroke-linecap:round; stroke-linejoin:round;">
<polyline style="fill-rule:evenodd;"
points="21287,4997
21956,4997
21956,5666
21287,5666
21287,4997
" /> 
</g>
<g style="fill:#848400; fill-opacity:1.0; 
stroke:#848400; stroke-width:669.291; stroke-opacity:1; 
stroke-linecap:round; stroke-linejoin:round;">
</g>
<g style="fill:#848400; fill-opacity:0.0; 
stroke:#848400; stroke-width:669.291; stroke-opacity:1; 
stroke-linecap:round; stroke-linejoin:round;">
<path d="M20621 5331
L20621 5331
" />
<path d="M19621 5331
L19621 5331
" />
</g>
<g style="fill:#840000; fill-opacity:0.0; 
stroke:#840000; stroke-width:669.291; stroke-opacity:1; 
stroke-linecap:round; stroke-linejoin:round;">
</g>
<g style="fill:#840000; fill-opacity:0.0; 
stroke:#840000; stroke-width:0; stroke-opacity:1; 
stroke-linecap:round; stroke-linejoin:round;">
</g>
<g style="fill:#840000; fill-opacity:1.0; 
stroke:#840000; stroke-width:0; stroke-opacity:1; 
stroke-linecap:round; stroke-linejoin:round;">
<polyline style="fill-rule:evenodd;"
points="8588,12317
8588,11806
9178,11806
9178,12317
8588,12317
" /> 
<polyline style="fill-rule:evenodd;"
points="9651,12317
9651,11806
10241,11806
10241,12317
9651,12317
" /> 
<polyline style="fill-rule:evenodd;"
points="11614,13515
11614,13751
11062,13751
11062,13515
11614,13515
" /> 
<polyline style="fill-rule:evenodd;"
points="9960,13515
9960,13751
9409,13751
9409,13515
9960,13515
" /> 
<polyline style="fill-rule:evenodd;"
points="11614,12881
11614,13118
11062,13118
11062,12881
11614,12881
" /> 
<polyline style="fill-rule:evenodd;"
points="9960,12881
9960,13118
9409,13118
9409,12881
9960,12881
" /> 
</g>
<g style="fill:#840000; fill-opacity:1.0; 
stroke:#840000; stroke-width:354.331; stroke-opacity:1; 
stroke-linecap:round; stroke-linejoin:round;">
</g>
<g style="fill:#840000; fill-opacity:0.0; 
stroke:#840000; stroke-width:354.331; stroke-opacity:1; 
stroke-linecap:round; stroke-linejoin:round;">
<path d="M18588 5049
L17958 5049
" />
<path d="M18588 5549
L17958 5549
" />
<path d="M18588 6049
L17958 6049
" />
<path d="M18588 6549
L17958 6549
" />
<path d="M18588 7049
L17958 7049
" />
<path d="M18588 7549
L17958 7549
" />
<path d="M18588 8049
L17958 8049
" />
<path d="M18588 8549
L17958 8549
" />
<path d="M18588 9049
L17958 9049
" />
<path d="M18588 9549
L17958 9549
" />
<path d="M18588 10049
L17958 10049
" />
<path d="M18588 10549
L17958 10549
" />
<path d="M18588 11049
L17958 11049
" />
<path d="M18588 11549
L17958 11549
" />
<path d="M16979 12450
L16979 11820
" />
<path d="M16479 12450
L16479 11820
" />
<path d="M15979 12450
L15979 11820
" />
<path d="M15479 12450
L15479 11820
" />
<path d="M14979 12450
L14979 11820
" />
<path d="M14479 12450
L14479 11820
" />
<path d="M13979 12450
L13979 11820
" />
<path d="M13479 12450
L13479 11820
" />
<path d="M12979 12450
L12979 11820
" />
<path d="M12479 12450
L12479 11820
" />
<path d="M11501 11549
L10871 11549
" />
<path d="M11501 11049
L10871 11049
" />
<path d="M11501 10549
L10871 10549
" />
<path d="M11501 10049
L10871 10049
" />
<path d="M11501 9549
L10871 9549
" />
<path d="M11501 9049
L10871 9049
" />
<path d="M11501 8549
L10871 8549
" />
<path d="M11501 8049
L10871 8049
" />
<path d="M11501 7549
L10871 7549
" />
<path d="M11501 7049
L10871 7049
" />
<path d="M11501 6549
L10871 6549
" />
<path d="M11501 6049
L10871 6049
" />
<path d="M11501 5549
L10871 5549
" />
<path d="M11501 5049
L10871 5049
" />
</g>
<g style="fill:#840000; fill-opacity:0.0; 
stroke:#840000; stroke-width:0; stroke-opacity:1; 
stroke-linecap:round; stroke-linejoin:round;">
</g>
<g style="fill:#840000; fill-opacity:1.0; 
stroke:#840000; stroke-width:0; stroke-opacity:1; 
stroke-linecap:round; stroke-linejoin:round;">
<polyline style="fill-rule:evenodd;"
points="15792,6899
15792,9261
13430,9261
13430,6899
15792,6899
" /> 
<polyline style="fill-rule:evenodd;"
points="9271,10378
9271,11178
7831,11178
7831,10378
9271,10378
" /> 
<polyline style="fill-rule:evenodd;"
points="8751,7778
8751,8578
8351,8578
8351,7778
8751,7778
" /> 
<polyline style="fill-rule:evenodd;"
points="7851,7778
7851,8578
7451,8578
7451,7778
7851,7778
" /> 
<polyline style="fill-rule:evenodd;"
points="9651,7778
9651,8578
9251,8578
9251,7778
9651,7778
" /> 
<polyline style="fill-rule:evenodd;"
points="20573,6823
20573,6683
21153,6683
21153,6823
20573,6823
" /> 
<polyline style="fill-rule:evenodd;"
points="20573,7073
20573,6933
21153,6933
21153,7073
20573,7073
" /> 
<polyline style="fill-rule:evenodd;"
points="20573,7333
20573,7193
21153,7193
21153,7333
20573,7333
" /> 
<polyline style="fill-rule:evenodd;"
points="20573,7593
20573,7453
21153,7453
21153,7593
20573,7593
" /> 
<polyline style="fill-rule:evenodd;"
points="20573,7843
20573,7703
21153,7703
21153,7843
20573,7843
" /> 
<polyline style="fill-rule:evenodd;"
points="20573,8103
20573,7963
21153,7963
21153,8103
20573,8103
" /> 
<polyline style="fill-rule:evenodd;"
points="20573,8353
20573,8213
21153,8213
21153,8353
20573,8353
" /> 
<polyline style="fill-rule:evenodd;"
points="20573,8613
20573,8473
21153,8473
21153,8613
20573,8613
" /> 
<polyline style="fill-rule:evenodd;"
points="20573,8873
20573,8733
21153,8733
21153,8873
20573,8873
" /> 
<polyline style="fill-rule:evenodd;"
points="20573,9123
20573,8983
21153,8983
21153,9123
20573,9123
" /> 
<polyline style="fill-rule:evenodd;"
points="22873,9123
22873,8983
23453,8983
23453,9123
22873,9123
" /> 
<polyline style="fill-rule:evenodd;"
points="22873,8873
22873,8733
23453,8733
23453,8873
22873,8873
" /> 
<polyline style="fill-rule:evenodd;"
points="22873,8613
22873,8473
23453,8473
23453,8613
22873,8613
" /> 
<polyline style="fill-rule:evenodd;"
points="22873,8353
22873,8213
23453,8213
23453,8353
22873,8353
" /> 
<polyline style="fill-rule:evenodd;"
points="22873,8103
22873,7963
23453,7963
23453,8103
22873,8103
" /> 
<polyline style="fill-rule:evenodd;"
points="22873,7843
22873,7703
23453,7703
23453,7843
22873,7843
" /> 
<polyline style="fill-rule:evenodd;"
points="22873,7593
22873,7453
23453,7453
23453,7593
22873,7593
" /> 
<polyline style="fill-rule:evenodd;"
points="22873,7333
22873,7193
23453,7193
23453,7333
22873,7333
" /> 
<polyline style="fill-rule:evenodd;"
points="22873,7073
22873,6933
23453,6933
23453,7073
22873,7073
" /> 
<polyline style="fill-rule:evenodd;"
points="22873,6823
22873,6683
23453,6683
23453,6823
22873,6823
" /> 
</g>
<g style="fill:#848400; fill-opacity:1.0; 
stroke:#848400; stroke-width:0; stroke-opacity:1; 
stroke-linecap:round; stroke-linejoin:round;">
<circle cx="20635.4" cy="1899.61" r="1122.05" /> 
</g>
<g style="fill:#848400; fill-opacity:1.0; 
stroke:#848400; stroke-width:39.3701; stroke-opacity:1; 
stroke-linecap:round; stroke-linejoin:round;">
</g>
<g style="fill:#840000; fill-opacity:1.0; 
stroke:#840000; stroke-width:39.3701; stroke-opacity:1; 
stroke-linecap:round; stroke-linejoin:round;">
</g>
<g style="fill:#840000; fill-opacity:1.0; 
stroke:#840000; stroke-width:150; stroke-opacity:1; 
stroke-linecap:round; stroke-linejoin:round;">
</g>
<g style="fill:#840000; fill-opacity:0.0; 
stroke:#840000; stroke-width:150; stroke-opacity:1; 
stroke-linecap:round; stroke-linejoin:round;">
<path d="M23163 6753
L20863 6753
" />
<path d="M23493 5331
L23493 6423
" />
<path d="M23493 6423
L23163 6753
" />
</g>
<g style="fill:#840000; fill-opacity:0.0; 
stroke:#840000; stroke-width:200; stroke-opacity:1; 
stroke-linecap:round; stroke-linejoin:round;">
<path d="M23493 5331
L23493 4151
" />
<path d="M23493 4151
L23491 4151
" />
</g>
<g style="fill:#840000; fill-opacity:0.0; 
stroke:#840000; stroke-width:700; stroke-opacity:1; 
stroke-linecap:round; stroke-linejoin:round;">
<path d="M7881 1793
L8313 1361
" />
<path d="M24561 4151
L25162 4753
" />
<path d="M23491 4151
L24561 4151
" />
<path d="M20691 4151
L23491 4151
" />
<path d="M17901 1361
L20691 4151
" />
<path d="M8313 1361
L17901 1361
" />
</g>
<g style="fill:#840000; fill-opacity:0.0; 
stroke:#840000; stroke-width:800; stroke-opacity:1; 
stroke-linecap:round; stroke-linejoin:round;">
<path d="M5521 7501
L5521 4153
" />
<path d="M5521 4153
L7881 1793
" />
</g>
<g style="fill:#840000; fill-opacity:0.0; 
stroke:#840000; stroke-width:400; stroke-opacity:1; 
stroke-linecap:round; stroke-linejoin:round;">
<path d="M5521 7501
L6198 8178
" />
<path d="M6198 8178
L7651 8178
" />
</g>
<g style="fill:#840000; fill-opacity:0.0; 
stroke:#840000; stroke-width:200; stroke-opacity:1; 
stroke-linecap:round; stroke-linejoin:round;">
<path d="M18273 5049
L18580 4741
" />
<path d="M21031 4741
L21621 5331
" />
<path d="M18580 4741
L21031 4741
" />
<path d="M12479 13113
L12479 13633
" />
<path d="M12479 12135
L12479 13113
" />
<path d="M12471 13581
L12471 13633
" />
<path d="M12471 13625
L12471 13581
" />
<path d="M12479 13633
L12471 13625
" />
<path d="M11338 13633
L12471 13633
" />
<path d="M12471 13633
L20855 13633
" />
<path d="M20855 13633
L21861 12627
" />
</g>
<g style="fill:#840000; fill-opacity:0.0; 
stroke:#840000; stroke-width:150; stroke-opacity:1; 
stroke-linecap:round; stroke-linejoin:round;">
<path d="M20863 9053
L21861 9053
" />
<path d="M21851 9061
L21861 9061
" />
<path d="M21853 9061
L21851 9061
" />
<path d="M21861 9053
L21853 9061
" />
<path d="M23163 8543
L21861 8543
" />
<path d="M21891 8551
L21861 8551
" />
<path d="M21870 8551
L21891 8551
" />
<path d="M21861 8543
L21870 8551
" />
<path d="M23163 8283
L21861 8283
" />
<path d="M20863 8283
L21861 8283
" />
<path d="M21801 8291
L21861 8291
" />
<path d="M21853 8291
L21801 8291
" />
<path d="M21861 8283
L21853 8291
" />
<path d="M20863 8033
L21861 8033
" />
<path d="M21801 8021
L21861 8021
" />
<path d="M21850 8021
L21801 8021
" />
<path d="M21861 8033
L21850 8021
" />
<path d="M23163 7003
L22090 7003
" />
<path d="M21861 7231
L21861 8021
" />
<path d="M21861 8021
L21861 8291
" />
<path d="M21861 8291
L21861 8551
" />
<path d="M21861 8551
L21861 9061
" />
<path d="M21861 9061
L21861 12627
" />
<path d="M22090 7003
L21861 7231
" />
</g>
<g style="fill:#840000; fill-opacity:0.0; 
stroke:#840000; stroke-width:200; stroke-opacity:1; 
stroke-linecap:round; stroke-linejoin:round;">
<path d="M22509 5331
L21621 5331
" />
<path d="M18273 5049
L15564 5049
" />
<path d="M15564 5049
L14611 6002
" />
<path d="M11186 5049
L13658 5049
" />
<path d="M13658 5049
L14611 6002
" />
<path d="M14611 6002
L14611 8080
" />
</g>
<g style="fill:#840000; fill-opacity:0.0; 
stroke:#840000; stroke-width:400; stroke-opacity:1; 
stroke-linecap:round; stroke-linejoin:round;">
<path d="M8551 5979
L7881 5309
" />
<path d="M7881 5309
L7881 3761
" />
</g>
<g style="fill:#840000; fill-opacity:0.0; 
stroke:#840000; stroke-width:150; stroke-opacity:1; 
stroke-linecap:round; stroke-linejoin:round;">
<path d="M9684 13633
L11338 13633
" />
</g>
<g style="fill:#840000; fill-opacity:0.0; 
stroke:#840000; stroke-width:200; stroke-opacity:1; 
stroke-linecap:round; stroke-linejoin:round;">
<path d="M11959 13633
L11338 13633
" />
<path d="M9451 8178
L9451 8641
" />
<path d="M8741 9352
L4340 9352
" />
<path d="M9451 8641
L8741 9352
" />
</g>
<g style="fill:#840000; fill-opacity:0.0; 
stroke:#840000; stroke-width:400; stroke-opacity:1; 
stroke-linecap:round; stroke-linejoin:round;">
<path d="M8531 5959
L8551 5979
" />
</g>
<g style="fill:#840000; fill-opacity:0.0; 
stroke:#840000; stroke-width:200; stroke-opacity:1; 
stroke-linecap:round; stroke-linejoin:round;">
<path d="M9451 5989
L8561 5989
" />
<path d="M8561 5989
L8551 5979
" />
<path d="M11186 5049
L9854 5049
" />
<path d="M9451 5451
L9451 5989
" />
<path d="M9854 5049
L9451 5451
" />
<path d="M8551 10778
L8551 11730
" />
<path d="M8551 11730
L8883 12061
" />
<path d="M11186 5549
L10394 5549
" />
<path d="M9799 6974
L9451 6974
" />
<path d="M10041 6731
L9799 6974
" />
<path d="M10041 5901
L10041 6731
" />
<path d="M10394 5549
L10041 5901
" />
</g>
<g style="fill:#840000; fill-opacity:0.0; 
stroke:#840000; stroke-width:400; stroke-opacity:1; 
stroke-linecap:round; stroke-linejoin:round;">
<path d="M8551 6964
L8561 6974
" />
<path d="M8561 6974
L9451 6974
" />
<path d="M8551 8178
L8551 6964
" />
</g>
<g style="fill:#840000; fill-opacity:0.0; 
stroke:#840000; stroke-width:150; stroke-opacity:1; 
stroke-linecap:round; stroke-linejoin:round;">
<path d="M23163 7263
L23660 7263
" />
<path d="M24362 5541
L25162 5541
" />
<path d="M24001 5901
L24362 5541
" />
<path d="M24001 6921
L24001 5901
" />
<path d="M23660 7263
L24001 6921
" />
</g>
<g style="fill:#840000; fill-opacity:0.0; 
stroke:#840000; stroke-width:200; stroke-opacity:1; 
stroke-linecap:round; stroke-linejoin:round;">
<path d="M25032 5541
L25162 5541
" />
</g>
<g style="fill:#840000; fill-opacity:0.0; 
stroke:#840000; stroke-width:150; stroke-opacity:1; 
stroke-linecap:round; stroke-linejoin:round;">
<path d="M23163 7523
L23770 7523
" />
<path d="M24464 6328
L25162 6328
" />
<path d="M24271 6521
L24464 6328
" />
<path d="M24271 7021
L24271 6521
" />
<path d="M23770 7523
L24271 7021
" />
<path d="M23163 7773
L23980 7773
" />
<path d="M24637 7116
L25162 7116
" />
<path d="M23980 7773
L24637 7116
" />
<path d="M23163 8033
L25032 8033
" />
<path d="M25032 8033
L25162 7903
" />
<path d="M23163 8803
L25050 8803
" />
<path d="M25050 8803
L25162 8690
" />
<path d="M23163 9053
L24738 9053
" />
<path d="M24738 9053
L25162 9478
" />
<path d="M18273 11549
L20338 11549
" />
<path d="M20861 12071
L20861 12627
" />
<path d="M20338 11549
L20861 12071
" />
<path d="M18273 7049
L19284 7049
" />
<path d="M20621 5711
L20621 5331
" />
<path d="M19284 7049
L20621 5711
" />
</g>
<g style="fill:#840000; fill-opacity:0.0; 
stroke:#840000; stroke-width:200; stroke-opacity:1; 
stroke-linecap:round; stroke-linejoin:round;">
<path d="M18273 6549
L18954 6549
" />
<path d="M19621 5881
L19621 5331
" />
<path d="M18954 6549
L19621 5881
" />
</g>
<g style="fill:#840000; fill-opacity:0.0; 
stroke:#840000; stroke-width:150; stroke-opacity:1; 
stroke-linecap:round; stroke-linejoin:round;">
<path d="M10371 11313
L10371 11636
" />
<path d="M11186 6049
L10544 6049
" />
<path d="M10371 6221
L10544 6049
" />
<path d="M10371 11313
L10371 6221
" />
<path d="M10371 11636
L9946 12061
" />
</g>
<g style="fill:#840000; fill-opacity:0.0; 
stroke:#840000; stroke-width:200; stroke-opacity:1; 
stroke-linecap:round; stroke-linejoin:round;">
<path d="M9946 12061
L9684 12323
" />
<path d="M9684 12323
L9684 13000
" />
</g>
<g style="fill:#840000; fill-opacity:0.0; 
stroke:#840000; stroke-width:150; stroke-opacity:1; 
stroke-linecap:round; stroke-linejoin:round;">
<path d="M9684 13000
L11338 13000
" />
<path d="M18273 7549
L19374 7549
" />
<path d="M19920 7003
L20863 7003
" />
<path d="M19374 7549
L19920 7003
" />
<path d="M18273 8549
L18744 8549
" />
<path d="M18744 8549
L20030 7263
" />
<path d="M20030 7263
L20863 7263
" />
<path d="M18273 8549
L18704 8549
" />
<path d="M18273 9049
L18694 9049
" />
<path d="M18694 9049
L20220 7523
" />
<path d="M20220 7523
L20863 7523
" />
<path d="M18273 9049
L18684 9049
" />
<path d="M18273 9549
L18574 9549
" />
<path d="M18574 9549
L20350 7773
" />
<path d="M20350 7773
L20863 7773
" />
<path d="M18273 9549
L18614 9549
" />
<path d="M18273 10049
L18624 10049
" />
<path d="M18624 10049
L20130 8543
" />
<path d="M20130 8543
L20863 8543
" />
<path d="M18273 10549
L18564 10549
" />
<path d="M18564 10549
L20310 8803
" />
<path d="M20310 8803
L20863 8803
" />
</g>
<g style="fill:#FFFFFF; fill-opacity:0.0; 
stroke:#FFFFFF; stroke-width:150; stroke-opacity:1; 
stroke-linecap:round; stroke-linejoin:round;">
</g>
<g style="fill:#FFFFFF; fill-opacity:1.0; 
stroke:#FFFFFF; stroke-width:0; stroke-opacity:1; 
stroke-linecap:round; stroke-linejoin:round;">
<circle cx="7267.01" cy="13021.7" r="629.921" /> 
</g>
<g style="fill:#FFFFFF; fill-opacity:1.0; 
stroke:#FFFFFF; stroke-width:39.3701; stroke-opacity:1; 
stroke-linecap:round; stroke-linejoin:round;">
</g>
<g style="fill:#FFFFFF; fill-opacity:1.0; 
stroke:#FFFFFF; stroke-width:0; stroke-opacity:1; 
stroke-linecap:round; stroke-linejoin:round;">
<circle cx="7881.65" cy="1793.46" r="157.48" /> 
</g>
<g style="fill:#FFFFFF; fill-opacity:1.0; 
stroke:#FFFFFF; stroke-width:39.3701; stroke-opacity:1; 
stroke-linecap:round; stroke-linejoin:round;">
</g>
<g style="fill:#FFFFFF; fill-opacity:1.0; 
stroke:#FFFFFF; stroke-width:0; stroke-opacity:1; 
stroke-linecap:round; stroke-linejoin:round;">
<circle cx="7881.65" cy="3761.97" r="157.48" /> 
</g>
<g style="fill:#FFFFFF; fill-opacity:1.0; 
stroke:#FFFFFF; stroke-width:39.3701; stroke-opacity:1; 
stroke-linecap:round; stroke-linejoin:round;">
</g>
<g style="fill:#FFFFFF; fill-opacity:1.0; 
stroke:#FFFFFF; stroke-width:393.701; stroke-opacity:1; 
stroke-linecap:round; stroke-linejoin:round;">
</g>
<g style="fill:#FFFFFF; fill-opacity:0.0; 
stroke:#FFFFFF; stroke-width:393.701; stroke-opacity:1; 
stroke-linecap:round; stroke-linejoin:round;">
<path d="M5521 7108
L5521 7895
" />
<path d="M3159 7108
L3159 7895
" />
<path d="M3946 9352
L4734 9352
" />
</g>
<g style="fill:#FFFFFF; fill-opacity:1.0; 
stroke:#FFFFFF; stroke-width:0; stroke-opacity:1; 
stroke-linecap:round; stroke-linejoin:round;">
<circle cx="25163" cy="7903.54" r="196.85" /> 
</g>
<g style="fill:#FFFFFF; fill-opacity:1.0; 
stroke:#FFFFFF; stroke-width:39.3701; stroke-opacity:1; 
stroke-linecap:round; stroke-linejoin:round;">
</g>
<g style="fill:#FFFFFF; fill-opacity:1.0; 
stroke:#FFFFFF; stroke-width:0; stroke-opacity:1; 
stroke-linecap:round; stroke-linejoin:round;">
<circle cx="25163" cy="8690.95" r="196.85" /> 
</g>
<g style="fill:#FFFFFF; fill-opacity:1.0; 
stroke:#FFFFFF; stroke-width:39.3701; stroke-opacity:1; 
stroke-linecap:round; stroke-linejoin:round;">
</g>
<g style="fill:#FFFFFF; fill-opacity:1.0; 
stroke:#FFFFFF; stroke-width:0; stroke-opacity:1; 
stroke-linecap:round; stroke-linejoin:round;">
<circle cx="25163" cy="9478.35" r="196.85" /> 
</g>
<g style="fill:#FFFFFF; fill-opacity:1.0; 
stroke:#FFFFFF; stroke-width:39.3701; stroke-opacity:1; 
stroke-linecap:round; stroke-linejoin:round;">
</g>
<g style="fill:#FFFFFF; fill-opacity:1.0; 
stroke:#FFFFFF; stroke-width:0; stroke-opacity:1; 
stroke-linecap:round; stroke-linejoin:round;">
<circle cx="25163" cy="10265.7" r="196.85" /> 
</g>
<g style="fill:#FFFFFF; fill-opacity:1.0; 
stroke:#FFFFFF; stroke-width:39.3701; stroke-opacity:1; 
stroke-linecap:round; stroke-linejoin:round;">
</g>
<g style="fill:#FFFFFF; fill-opacity:1.0; 
stroke:#FFFFFF; stroke-width:0; stroke-opacity:1; 
stroke-linecap:round; stroke-linejoin:round;">
<circle cx="25163" cy="4753.94" r="196.85" /> 
</g>
<g style="fill:#FFFFFF; fill-opacity:1.0; 
stroke:#FFFFFF; stroke-width:39.3701; stroke-opacity:1; 
stroke-linecap:round; stroke-linejoin:round;">
</g>
<g style="fill:#FFFFFF; fill-opacity:1.0; 
stroke:#FFFFFF; stroke-width:0; stroke-opacity:1; 
stroke-linecap:round; stroke-linejoin:round;">
<circle cx="25163" cy="5541.34" r="196.85" /> 
</g>
<g style="fill:#FFFFFF; fill-opacity:1.0; 
stroke:#FFFFFF; stroke-width:39.3701; stroke-opacity:1; 
stroke-linecap:round; stroke-linejoin:round;">
</g>
<g style="fill:#FFFFFF; fill-opacity:1.0; 
stroke:#FFFFFF; stroke-width:0; stroke-opacity:1; 
stroke-linecap:round; stroke-linejoin:round;">
<circle cx="25163" cy="6328.74" r="196.85" /> 
</g>
<g style="fill:#FFFFFF; fill-opacity:1.0; 
stroke:#FFFFFF; stroke-width:39.3701; stroke-opacity:1; 
stroke-linecap:round; stroke-linejoin:round;">
</g>
<g style="fill:#FFFFFF; fill-opacity:1.0; 
stroke:#FFFFFF; stroke-width:0; stroke-opacity:1; 
stroke-linecap:round; stroke-linejoin:round;">
<circle cx="25163" cy="7116.14" r="196.85" /> 
</g>
<g style="fill:#FFFFFF; fill-opacity:1.0; 
stroke:#FFFFFF; stroke-width:39.3701; stroke-opacity:1; 
stroke-linecap:round; stroke-linejoin:round;">
</g>
<g style="fill:#FFFFFF; fill-opacity:1.0; 
stroke:#FFFFFF; stroke-width:0; stroke-opacity:1; 
stroke-linecap:round; stroke-linejoin:round;">
<circle cx="19861.7" cy="12628" r="196.85" /> 
</g>
<g style="fill:#FFFFFF; fill-opacity:1.0; 
stroke:#FFFFFF; stroke-width:39.3701; stroke-opacity:1; 
stroke-linecap:round; stroke-linejoin:round;">
</g>
<g style="fill:#FFFFFF; fill-opacity:1.0; 
stroke:#FFFFFF; stroke-width:0; stroke-opacity:1; 
stroke-linecap:round; stroke-linejoin:round;">
<circle cx="20861.7" cy="12628" r="196.85" /> 
</g>
<g style="fill:#FFFFFF; fill-opacity:1.0; 
stroke:#FFFFFF; stroke-width:39.3701; stroke-opacity:1; 
stroke-linecap:round; stroke-linejoin:round;">
</g>
<g style="fill:#FFFFFF; fill-opacity:1.0; 
stroke:#FFFFFF; stroke-width:0; stroke-opacity:1; 
stroke-linecap:round; stroke-linejoin:round;">
<circle cx="21861.7" cy="12628" r="196.85" /> 
</g>
<g style="fill:#FFFFFF; fill-opacity:1.0; 
stroke:#FFFFFF; stroke-width:39.3701; stroke-opacity:1; 
stroke-linecap:round; stroke-linejoin:round;">
</g>
<g style="fill:#FFFFFF; fill-opacity:1.0; 
stroke:#FFFFFF; stroke-width:0; stroke-opacity:1; 
stroke-linecap:round; stroke-linejoin:round;">
<circle cx="21621.7" cy="5331.97" r="196.85" /> 
</g>
<g style="fill:#FFFFFF; fill-opacity:1.0; 
stroke:#FFFFFF; stroke-width:39.3701; stroke-opacity:1; 
stroke-linecap:round; stroke-linejoin:round;">
</g>
<g style="fill:#FFFFFF; fill-opacity:1.0; 
stroke:#FFFFFF; stroke-width:0; stroke-opacity:1; 
stroke-linecap:round; stroke-linejoin:round;">
<circle cx="20621.7" cy="5331.97" r="196.85" /> 
</g>
<g style="fill:#FFFFFF; fill-opacity:1.0; 
stroke:#FFFFFF; stroke-width:39.3701; stroke-opacity:1; 
stroke-linecap:round; stroke-linejoin:round;">
</g>
<g style="fill:#FFFFFF; fill-opacity:1.0; 
stroke:#FFFFFF; stroke-width:0; stroke-opacity:1; 
stroke-linecap:round; stroke-linejoin:round;">
<circle cx="19621.7" cy="5331.97" r="196.85" /> 
</g>
<g style="fill:#FFFFFF; fill-opacity:1.0; 
stroke:#FFFFFF; stroke-width:39.3701; stroke-opacity:1; 
stroke-linecap:round; stroke-linejoin:round;">
</g>
<g style="fill:#FFFFFF; fill-opacity:1.0; 
stroke:#FFFFFF; stroke-width:0; stroke-opacity:1; 
stroke-linecap:round; stroke-linejoin:round;">
<circle cx="20635.4" cy="1899.61" r="629.921" /> 
</g>
<g style="fill:#FFFFFF; fill-opacity:1.0; 
stroke:#FFFFFF; stroke-width:39.3701; stroke-opacity:1; 
stroke-linecap:round; stroke-linejoin:round;">
</g>
<g style="fill:#000000; fill-opacity:1.0; 
stroke:#000000; stroke-width:39.3701; stroke-opacity:1; 
stroke-linecap:round; stroke-linejoin:round;">
</g>
<g style="fill:#C2C2C2; fill-opacity:1.0; 
stroke:#C2C2C2; stroke-width:39.3701; stroke-opacity:1; 
stroke-linecap:round; stroke-linejoin:round;">
</g>
<g style="fill:#C2C2C2; fill-opacity:0.0; 
stroke:#C2C2C2; stroke-width:19.685; stroke-opacity:1; 
stroke-linecap:round; stroke-linejoin:round;">
<circle cx="7249.61" cy="13021.7" r="1220.47" /> 
<circle cx="7881.65" cy="2777.72" r="2677.17" /> 
<path d="M8157 7377
L8157 5566
" />
<path d="M8945 7377
L8945 5566
" />
<path d="M8157 7377
L8945 7377
" />
<path d="M8157 5566
L8945 5566
" />
<path d="M9057 7387
L9057 5576
" />
<path d="M9845 7387
L9845 5576
" />
<path d="M9057 7387
L9845 7387
" />
<path d="M9057 5576
L9845 5576
" />
<path d="M23907 5725
L22096 5725
" />
<path d="M23907 4938
L22096 4938
" />
<path d="M23907 5725
L23907 4938
" />
<path d="M22096 5725
L22096 4938
" />
<path d="M5915 5730
L5915 5631
" />
<path d="M5915 5631
L9 5631
" />
<path d="M5915 5730
L5915 6714
" />
<path d="M5915 6714
L6309 6714
" />
<path d="M6309 6714
L6309 8289
" />
<path d="M6309 8289
L5915 8289
" />
<path d="M5915 8289
L5915 9372
" />
<path d="M5915 9372
L5127 9372
" />
<path d="M5127 9372
L5127 10159
" />
<path d="M5127 10159
L3553 10159
" />
<path d="M3553 10159
L3553 9372
" />
<path d="M3553 9372
L9 9372
" />
<path d="M9 9372
L9 5631
" />
<path d="M19231 13257
L22460 13257
" />
<path d="M22460 13257
L22460 11998
" />
<path d="M22460 11998
L19231 11998
" />
<path d="M19231 11998
L19231 13257
" />
<path d="M22251 4702
L19023 4702
" />
<path d="M19023 4702
L19023 5961
" />
<path d="M19023 5961
L22251 5961
" />
<path d="M22251 5961
L22251 4702
" />
<path d="M8470 11668
L10359 11668
" />
<path d="M8470 12455
L10359 12455
" />
<path d="M8470 11668
L8470 12455
" />
<path d="M10359 11668
L10359 12455
" />
<path d="M11692 12647
L9330 12647
" />
<path d="M9330 12647
L9330 13986
" />
<path d="M9330 13986
L11692 13986
" />
<path d="M11692 13986
L11692 12647
" />
<circle cx="20635.4" cy="1899.61" r="1220.47" /> 
</g>
<g style="fill:#000000; fill-opacity:0.0; 
stroke:#000000; stroke-width:19.685; stroke-opacity:1; 
stroke-linecap:round; stroke-linejoin:round;">
</g>
<g style="fill:#C2C200; fill-opacity:0.0; 
stroke:#C2C200; stroke-width:19.685; stroke-opacity:1; 
stroke-linecap:round; stroke-linejoin:round;">
</g>
<g style="fill:#C2C200; fill-opacity:0.0; 
stroke:#C2C200; stroke-width:59.0551; stroke-opacity:1; 
stroke-linecap:round; stroke-linejoin:round;">
<path d="M26344 29
L1540 29
" />
<path d="M26344 14990
L26344 29
" />
<path d="M1540 14990
L26344 14990
" />
<path d="M1540 29
L1540 14990
" />
<path d="M22800 14990
L22800 11643
" />
<path d="M22800 11643
L26344 11643
" />
<path d="M22800 3375
L26344 3375
" />
<path d="M22800 3375
L22800 29
" />
<path d="M26344 3375
L26344 11643
" />
<path d="M5084 14990
L5084 11643
" />
<path d="M1540 11643
L5084 11643
" />
<path d="M5084 3375
L5084 29
" />
<path d="M1540 3375
L5084 3375
" />
<path d="M1540 3375
L1540 11643
" />
<path d="M5084 14990
L22800 14990
" />
<path d="M5084 29
L22800 29
" />
</g> 
</svg>
